<?xml version="1.0" encoding="utf-8"?>
<!-- Generator: Adobe Illustrator 15.0.0, SVG Export Plug-In . SVG Version: 6.00 Build 0)  -->
<!DOCTYPE svg PUBLIC "-//W3C//DTD SVG 1.1//EN" "http://www.w3.org/Graphics/SVG/1.1/DTD/svg11.dtd">
<svg version="1.1" id="Layer_1" xmlns="http://www.w3.org/2000/svg" xmlns:xlink="http://www.w3.org/1999/xlink" x="0px" y="0px"
	 width="188.021px" height="207.969px" viewBox="0 0 188.021 207.969" enable-background="new 0 0 188.021 207.969"
	 xml:space="preserve">
<g>
	<g>
		<path d="M58.864,207.342c0.19,0,0.345-0.078,0.466-0.238c0.12-0.158,0.181-0.348,0.181-0.568c0-0.223-0.02-0.428-0.058-0.619
			l0.361-0.057c0.051,0.189,0.076,0.398,0.076,0.627c0,0.457-0.137,0.818-0.408,1.084c-0.273,0.266-0.624,0.398-1.055,0.398
			c-1.077,0-1.615-0.652-1.615-1.957s-0.165-2.264-0.494-2.879c-0.329-0.613-1.001-0.922-2.014-0.922h-1.235v4.922
			c0,0.178,0.089,0.266,0.267,0.266h1.272v0.342h-4.256v-0.342h0.893c0.178,0,0.267-0.088,0.267-0.266v-10.791
			c0-0.152-0.089-0.229-0.267-0.229h-0.893v-0.342h4.731c1.063,0,1.969,0.291,2.717,0.873c0.747,0.584,1.121,1.361,1.121,2.338
			c0,0.785-0.244,1.447-0.731,1.984c-0.488,0.539-1.131,0.91-1.929,1.111c0.899,0.305,1.469,0.85,1.71,1.635
			c0.189,0.646,0.285,1.412,0.285,2.299S58.459,207.342,58.864,207.342z M54.988,196.303h-1.919v5.357h1.919
			c0.76,0,1.353-0.266,1.776-0.797c0.425-0.533,0.637-1.16,0.637-1.881c0-0.723-0.212-1.35-0.637-1.881
			C56.341,196.569,55.748,196.303,54.988,196.303z"/>
		<path d="M67.263,207.741v-0.342h0.893c0.178,0,0.267-0.088,0.267-0.266v-10.791c0-0.152-0.089-0.229-0.267-0.229h-0.893v-0.342
			h6.023c1,0,1.703-0.057,2.108-0.172c-0.114,0.52-0.171,1.242-0.171,2.166v0.893h-0.437l-0.285-1.938
			c-0.025-0.277-0.203-0.418-0.532-0.418h-3.99v5.188h3.819c0.151,0,0.24-0.09,0.266-0.266l0.095-1.18h0.343v3.42h-0.343
			l-0.095-1.178c-0.025-0.176-0.114-0.266-0.266-0.266h-3.819v5.188h4.256c0.329,0,0.507-0.139,0.532-0.418l0.285-2.223h0.437v0.893
			c0,1.115,0.058,1.932,0.172,2.451c-0.406-0.115-1.109-0.172-2.109-0.172H67.263z"/>
		<path d="M83.926,196.114v-0.342h4.636c1.077,0,1.985,0.326,2.727,0.979s1.111,1.529,1.111,2.631s-0.37,1.979-1.111,2.631
			s-1.649,0.979-2.727,0.979h-1.919v4.143c0,0.178,0.089,0.266,0.267,0.266h1.272v0.342h-4.256v-0.342h0.893
			c0.178,0,0.267-0.088,0.267-0.266v-10.791c0-0.152-0.089-0.229-0.267-0.229H83.926z M88.467,196.303h-1.824v6.156h1.824
			c0.747,0,1.336-0.307,1.767-0.922c0.431-0.613,0.646-1.332,0.646-2.156s-0.216-1.541-0.646-2.156S89.214,196.303,88.467,196.303z"
			/>
		<path d="M110.525,195.772v0.342h-0.894c-0.178,0-0.266,0.076-0.266,0.229v7.693c0,1.318-0.38,2.303-1.141,2.955
			c-0.76,0.652-1.779,0.979-3.059,0.979s-2.299-0.326-3.059-0.979c-0.761-0.652-1.141-1.637-1.141-2.955v-7.693
			c0-0.152-0.089-0.229-0.266-0.229h-0.894v-0.342h3.876v0.342h-0.893c-0.178,0-0.266,0.076-0.266,0.229v7.826
			c0,1.064,0.263,1.854,0.788,2.367c0.525,0.512,1.241,0.77,2.147,0.77c0.905,0,1.675-0.258,2.308-0.77
			c0.634-0.514,0.95-1.346,0.95-2.5v-7.693c0-0.152-0.089-0.229-0.266-0.229h-0.894v-0.342H110.525z"/>
		<path d="M118.315,207.741v-0.342h0.893c0.178,0,0.267-0.076,0.267-0.229v-10.828c0-0.152-0.089-0.229-0.267-0.229h-0.893v-0.342
			h4.446c0.949,0,1.764,0.26,2.441,0.779c0.677,0.52,1.017,1.189,1.017,2.014c0,0.633-0.168,1.188-0.504,1.662
			s-0.782,0.832-1.34,1.072c0.799,0.178,1.447,0.539,1.948,1.084c0.5,0.545,0.75,1.27,0.75,2.176s-0.374,1.662-1.121,2.27
			c-0.747,0.609-1.652,0.912-2.717,0.912H118.315z M122.362,196.303h-1.33v4.863h1.444c0.747,0,1.305-0.252,1.672-0.76
			c0.367-0.506,0.551-1.098,0.551-1.775s-0.189-1.236-0.57-1.672C123.749,196.522,123.16,196.303,122.362,196.303z M123.142,201.643
			h-2.109v5.566h2.109c0.76,0,1.352-0.279,1.776-0.836c0.424-0.557,0.637-1.209,0.637-1.957s-0.213-1.396-0.637-1.947
			C124.493,201.918,123.901,201.643,123.142,201.643z"/>
		<path d="M134.864,207.741v-0.342h0.893c0.178,0,0.267-0.088,0.267-0.266v-10.791c0-0.152-0.089-0.229-0.267-0.229h-0.893v-0.342
			h3.876v0.342h-0.893c-0.178,0-0.267,0.076-0.267,0.229v10.867h3.781c0.329,0,0.507-0.139,0.532-0.418l0.285-2.223h0.437v0.893
			c0,1.115,0.057,1.932,0.171,2.451c-0.405-0.115-1.108-0.172-2.109-0.172H134.864z"/>
		<path d="M151.451,207.133v-10.791c0-0.152-0.089-0.229-0.267-0.229h-0.893v-0.342h3.876v0.342h-0.893
			c-0.178,0-0.267,0.076-0.267,0.229v10.791c0,0.178,0.089,0.266,0.267,0.266h0.893v0.342h-3.876v-0.342h0.893
			C151.362,207.399,151.451,207.311,151.451,207.133z"/>
		<path d="M163.497,207.133v-10.791c0-0.152-0.089-0.229-0.267-0.229h-0.893v-0.342h3.876v0.342h-0.893
			c-0.178,0-0.267,0.076-0.267,0.229v10.791c0,0.178,0.089,0.266,0.267,0.266h0.893v0.342h-3.876v-0.342h0.893
			C163.408,207.399,163.497,207.311,163.497,207.133z M169.501,204.417l0.437,1.748c0.19,0.785,0.494,1.178,0.912,1.178
			c0.216,0,0.383-0.078,0.504-0.238c0.12-0.158,0.181-0.348,0.181-0.568c0-0.223-0.02-0.428-0.058-0.619l0.361-0.057
			c0.051,0.189,0.076,0.398,0.076,0.627c0,0.457-0.137,0.818-0.409,1.084s-0.624,0.398-1.054,0.398c-1.064,0-1.761-0.678-2.09-2.033
			l-0.438-1.748c-0.216-0.822-0.513-1.396-0.893-1.719c-0.381-0.324-0.919-0.484-1.615-0.484v-0.418l4.483-5.453h-0.949v-0.342
			h2.584v0.342h-0.514c-0.202,0-0.38,0.088-0.531,0.266l-4.257,5.148c0.976,0.014,1.71,0.279,2.204,0.799
			S169.285,203.542,169.501,204.417z"/>
	</g>
	<g>
		<path d="M57.217,178.407v10.867c0,0.152,0.088,0.229,0.266,0.229h1.653v0.342h-5.396v-0.342h1.653
			c0.177,0,0.266-0.076,0.266-0.229v-10.867h-2.451c-0.329,0-0.506,0.141-0.531,0.418l-0.285,2.223h-0.438v-0.893
			c0-1.115-0.057-1.932-0.171-2.451c0.405,0.115,1.108,0.172,2.109,0.172h5.092c1.001,0,1.703-0.057,2.109-0.172
			c-0.114,0.52-0.171,1.336-0.171,2.451v0.893h-0.438l-0.285-2.223c-0.025-0.277-0.202-0.418-0.531-0.418H57.217z"/>
		<path d="M72.777,189.237v-5.111h-5.548v5.111c0,0.178,0.089,0.266,0.267,0.266h0.893v0.342h-3.876v-0.342h0.893
			c0.178,0,0.267-0.088,0.267-0.266v-10.791c0-0.152-0.089-0.229-0.267-0.229h-0.893v-0.342h3.876v0.342h-0.893
			c-0.178,0-0.267,0.088-0.267,0.266v5.111h5.548v-5.111c0-0.178-0.089-0.266-0.266-0.266h-0.893v-0.342h3.876v0.342h-0.894
			c-0.178,0-0.266,0.076-0.266,0.229v10.791c0,0.178,0.088,0.266,0.266,0.266h0.894v0.342h-3.876v-0.342h0.893
			C72.688,189.502,72.777,189.415,72.777,189.237z"/>
		<path d="M79.484,189.844v-0.342h0.893c0.178,0,0.267-0.088,0.267-0.266v-10.791c0-0.152-0.089-0.229-0.267-0.229h-0.893v-0.342
			h6.023c1,0,1.703-0.057,2.108-0.172c-0.114,0.52-0.171,1.242-0.171,2.166v0.893h-0.437l-0.285-1.938
			c-0.025-0.277-0.203-0.418-0.532-0.418h-3.99v5.188h3.819c0.151,0,0.24-0.09,0.266-0.266l0.095-1.18h0.343v3.42h-0.343
			l-0.095-1.178c-0.025-0.176-0.114-0.266-0.266-0.266h-3.819v5.188h4.256c0.329,0,0.507-0.139,0.532-0.418l0.285-2.223h0.437v0.893
			c0,1.115,0.058,1.932,0.172,2.451c-0.406-0.115-1.109-0.172-2.109-0.172H79.484z"/>
		<path d="M103.424,190.073c-0.836,0-1.672-0.229-2.508-0.684c-0.279-0.141-0.469-0.209-0.57-0.209
			c-0.189,0-0.291,0.133-0.304,0.398l-0.02,0.266h-0.36v-3.172h0.342c0.114,0.975,0.478,1.693,1.093,2.156
			c0.614,0.463,1.342,0.693,2.185,0.693s1.482-0.229,1.919-0.684c0.438-0.457,0.655-0.994,0.655-1.615
			c0-0.988-0.569-1.736-1.71-2.242l-2.261-1.008c-0.684-0.303-1.197-0.719-1.539-1.244s-0.513-1.092-0.513-1.701
			c0-0.924,0.311-1.719,0.931-2.383c0.621-0.666,1.514-0.998,2.68-0.998c0.684,0,1.387,0.229,2.108,0.684
			c0.24,0.141,0.405,0.209,0.494,0.209c0.164,0,0.253-0.133,0.266-0.398l0.02-0.381h0.361v3.287h-0.343
			c-0.102-0.975-0.415-1.693-0.94-2.156c-0.525-0.461-1.165-0.693-1.919-0.693s-1.336,0.207-1.748,0.617
			c-0.411,0.412-0.617,0.881-0.617,1.406s0.143,0.998,0.428,1.416s0.706,0.746,1.263,0.988l2.28,1.006
			c0.76,0.342,1.333,0.789,1.72,1.34c0.386,0.551,0.579,1.143,0.579,1.777c0,0.898-0.36,1.678-1.083,2.336
			C105.59,189.743,104.627,190.073,103.424,190.073z"/>
		<path d="M112.64,189.237v-10.791c0-0.152-0.089-0.229-0.267-0.229h-0.893v-0.342h3.876v0.342h-0.893
			c-0.178,0-0.267,0.076-0.267,0.229v10.791c0,0.178,0.089,0.266,0.267,0.266h0.893v0.342h-3.876v-0.342h0.893
			C112.551,189.502,112.64,189.415,112.64,189.237z M118.644,186.52l0.437,1.748c0.19,0.785,0.494,1.178,0.912,1.178
			c0.216,0,0.383-0.078,0.504-0.238c0.12-0.158,0.181-0.348,0.181-0.568c0-0.223-0.02-0.428-0.058-0.619l0.361-0.057
			c0.051,0.189,0.076,0.398,0.076,0.627c0,0.457-0.137,0.818-0.409,1.084s-0.624,0.398-1.054,0.398c-1.064,0-1.761-0.678-2.09-2.033
			l-0.438-1.748c-0.216-0.822-0.513-1.396-0.893-1.719c-0.381-0.324-0.919-0.484-1.615-0.484v-0.418l4.483-5.453h-0.949v-0.342
			h2.584v0.342h-0.514c-0.202,0-0.38,0.088-0.531,0.266l-4.257,5.148c0.976,0.014,1.71,0.279,2.204,0.799
			S118.428,185.645,118.644,186.52z"/>
		<path d="M125.541,189.237v-10.791c0-0.152-0.089-0.229-0.267-0.229h-0.893v-0.342h3.876v0.342h-0.893
			c-0.178,0-0.267,0.076-0.267,0.229v10.791c0,0.178,0.089,0.266,0.267,0.266h0.893v0.342h-3.876v-0.342h0.893
			C125.452,189.502,125.541,189.415,125.541,189.237z"/>
		<path d="M141.197,189.844l-7.145-10.602v9.994c0,0.178,0.089,0.266,0.267,0.266h0.893v0.342h-2.964v-0.342h0.893
			c0.178,0,0.267-0.088,0.267-0.266v-10.791c0-0.152-0.089-0.229-0.267-0.229h-0.893v-0.342h2.793l6.118,9.043v-8.436
			c0-0.178-0.089-0.266-0.267-0.266H140v-0.342h2.964v0.342h-0.893c-0.178,0-0.267,0.076-0.267,0.229v11.398H141.197z"/>
		<path d="M155.809,189.844l-7.145-10.602v9.994c0,0.178,0.089,0.266,0.267,0.266h0.893v0.342h-2.964v-0.342h0.893
			c0.178,0,0.267-0.088,0.267-0.266v-10.791c0-0.152-0.089-0.229-0.267-0.229h-0.893v-0.342h2.793l6.118,9.043v-8.436
			c0-0.178-0.089-0.266-0.267-0.266h-0.893v-0.342h2.964v0.342h-0.893c-0.178,0-0.267,0.076-0.267,0.229v11.398H155.809z"/>
		<path d="M168.14,177.875h2.584v0.342h-0.703c-0.178,0-0.298,0.088-0.361,0.266l-2.906,7.012v3.742
			c0,0.178,0.088,0.266,0.266,0.266h1.368v0.342h-4.826v-0.342h1.368c0.177,0,0.266-0.088,0.266-0.266v-3.762l-3.229-6.992
			c-0.089-0.178-0.209-0.266-0.361-0.266H160.9v-0.342h3.629v0.342h-0.949l2.906,6.307l2.604-6.307h-0.95V177.875z"/>
	</g>
	<polygon points="169.865,0 149.865,20.01 149.865,74.801 144.866,74.801 144.866,25.02 124.824,45.057 124.792,74.801 
		119.834,74.801 119.834,50.032 99.729,70.157 99.73,119.854 149.855,119.854 149.855,124.905 94.708,124.905 94.792,0.157 
		74.667,20.301 74.604,144.885 149.855,144.905 149.855,149.958 69.677,149.958 69.677,100.208 49.573,120.323 49.573,149.958 
		44.584,149.958 44.584,125.307 24.349,145.542 24.333,169.948 20.251,169.956 20.251,149.723 0.016,169.958 0,189.969 
		44.522,189.956 44.522,169.958 169.855,169.958 169.855,99.854 119.834,99.854 119.834,94.801 169.855,94.801 	"/>
	<circle cx="47.042" cy="105.01" r="5.5"/>
	<circle cx="14.761" cy="202.469" r="5.5"/>
	<circle cx="29.729" cy="202.469" r="5.5"/>
	<circle cx="182.521" cy="158.051" r="5.5"/>
	<circle cx="182.521" cy="143.051" r="5.5"/>
</g>
</svg>
